<svg width="447" height="447" viewBox="0 0 447 447" fill="none" xmlns="http://www.w3.org/2000/svg">
<g opacity="0.15">
<mask id="path-1-inside-1_142_8003" fill="white">
<path fill-rule="evenodd" clip-rule="evenodd" d="M439.525 170.868C468.796 289.973 395.97 410.255 276.866 439.525C157.761 468.795 37.4789 395.97 8.20847 276.865C-11.6489 196.063 15.4824 114.72 72.1748 61.6184C74.8387 64.0398 78.6206 65.1342 82.3794 64.2105C88.3802 62.7358 92.0493 56.6757 90.5746 50.6749C90.2697 49.4344 89.7689 48.2936 89.1132 47.2772C112.672 29.2809 140.24 15.7354 170.868 8.20834C289.973 -21.062 410.255 51.7632 439.525 170.868ZM88.5333 46.4615C112.192 28.3944 139.875 14.7953 170.629 7.23724C290.271 -22.1649 411.094 50.9882 440.496 170.629C469.899 290.271 396.745 411.094 277.104 440.496C157.463 469.898 36.6396 396.745 7.23737 277.104C-12.7063 195.951 14.5356 114.254 71.4651 60.9128C70.2318 59.5716 69.3093 57.9096 68.8437 56.0153C67.369 50.0145 71.0381 43.9544 77.0389 42.4797C81.4555 41.3943 85.9043 43.0953 88.5333 46.4615ZM385.877 184.052C407.866 273.528 353.157 363.888 263.681 385.877C174.206 407.866 83.8456 353.157 61.8566 263.681C53.3816 229.196 56.3 194.579 68.2109 163.795C70.1734 164.471 72.3464 164.608 74.5117 164.076C80.5125 162.601 84.1816 156.541 82.7069 150.54C81.9661 147.526 80.0686 145.101 77.6028 143.619C99.2937 104.109 136.831 73.4613 184.052 61.8566C273.528 39.8676 363.888 94.5765 385.877 184.052ZM60.8855 263.92C52.3591 229.225 55.296 194.398 67.2807 163.428C64.2383 162.068 61.833 159.368 60.976 155.881C59.5013 149.88 63.1704 143.82 69.1712 142.345C71.8087 141.697 74.4576 142.043 76.7236 143.143C98.5441 103.393 136.308 72.5602 183.814 60.8855C273.826 38.7647 364.728 93.8015 386.848 183.814C408.969 273.826 353.932 364.728 263.92 386.848C173.908 408.969 83.0062 353.932 60.8855 263.92Z"/>
</mask>
<path d="M72.1748 61.6184L72.8475 60.8784L72.1647 60.2577L71.4912 60.8885L72.1748 61.6184ZM89.1132 47.2772L88.5062 46.4826L87.7722 47.0432L88.2729 47.8193L89.1132 47.2772ZM88.5333 46.4615L87.7452 47.077L88.3541 47.8566L89.1402 47.2563L88.5333 46.4615ZM71.4651 60.9128L72.1488 61.6425L72.8718 60.9651L72.2012 60.2359L71.4651 60.9128ZM68.2109 163.795L68.5363 162.85L67.6258 162.537L67.2783 163.435L68.2109 163.795ZM77.6028 143.619L76.7262 143.138L76.2634 143.981L77.0879 144.477L77.6028 143.619ZM67.2807 163.428L68.2133 163.789L68.5561 162.903L67.6889 162.515L67.2807 163.428ZM76.7236 143.143L76.2868 144.042L77.1424 144.458L77.6002 143.624L76.7236 143.143ZM277.104 440.496C396.745 411.094 469.899 290.271 440.496 170.629L438.554 171.107C467.693 289.675 395.195 409.415 276.627 438.554L277.104 440.496ZM7.23737 277.104C36.6396 396.745 157.463 469.898 277.104 440.496L276.627 438.554C158.058 467.693 38.3182 395.195 9.17958 276.627L7.23737 277.104ZM71.4912 60.8885C14.5457 114.227 -12.7097 195.937 7.23737 277.104L9.17958 276.627C-10.5881 196.19 16.4192 115.212 72.8584 62.3482L71.4912 60.8885ZM82.1407 63.2394C78.7188 64.0803 75.2755 63.0855 72.8475 60.8784L71.5022 62.3583C74.4019 64.9942 78.5224 66.1881 82.618 65.1816L82.1407 63.2394ZM89.6035 50.9135C90.9464 56.378 87.6052 61.8965 82.1407 63.2394L82.618 65.1816C89.1551 63.5751 93.1522 56.9734 91.5457 50.4362L89.6035 50.9135ZM88.2729 47.8193C88.8693 48.7437 89.3254 49.7822 89.6035 50.9135L91.5457 50.4362C91.214 49.0866 90.6686 47.8434 89.9535 46.7351L88.2729 47.8193ZM170.629 7.23724C139.865 14.7977 112.172 28.4043 88.5062 46.4826L89.7203 48.0719C113.171 30.1575 140.614 16.673 171.107 9.17945L170.629 7.23724ZM440.496 170.629C411.094 50.9882 290.271 -22.1649 170.629 7.23724L171.107 9.17945C289.675 -19.9591 409.416 52.5382 438.554 171.107L440.496 170.629ZM170.391 6.26613C139.5 13.8576 111.692 27.5177 87.9264 45.6668L89.1402 47.2563C112.692 29.2711 140.249 15.733 170.868 8.20834L170.391 6.26613ZM441.467 170.391C411.933 50.2132 290.568 -23.2679 170.391 6.26613L170.868 8.20834C289.973 -21.062 410.255 51.7632 439.525 170.868L441.467 170.391ZM277.343 441.467C397.52 411.933 471.001 290.568 441.467 170.391L439.525 170.868C468.796 289.973 395.97 410.255 276.866 439.525L277.343 441.467ZM6.26626 277.343C35.8003 397.52 157.165 471.001 277.343 441.467L276.866 439.525C157.761 468.795 37.4789 395.97 8.20847 276.865L6.26626 277.343ZM70.7814 60.183C13.5988 113.761 -13.7671 195.824 6.26626 277.343L8.20847 276.865C-11.6455 196.077 15.4723 114.746 72.1488 61.6425L70.7814 60.183ZM72.2012 60.2359C71.0789 59.0155 70.2392 57.5034 69.8148 55.7766L67.8726 56.2539C68.3794 58.3159 69.3846 60.1277 70.729 61.5897L72.2012 60.2359ZM69.8148 55.7766C68.4719 50.3122 71.8131 44.7937 77.2776 43.4508L76.8003 41.5086C70.2631 43.1151 66.2661 49.7168 67.8726 56.2539L69.8148 55.7766ZM77.2776 43.4508C81.2979 42.4627 85.3496 44.0098 87.7452 47.077L89.3214 45.846C86.4589 42.1808 81.6131 40.3258 76.8003 41.5086L77.2776 43.4508ZM263.92 386.848C353.932 364.728 408.969 273.826 386.848 183.814L384.906 184.291C406.763 273.231 352.382 363.049 263.443 384.906L263.92 386.848ZM60.8855 263.92C83.0063 353.932 173.908 408.969 263.92 386.848L263.443 384.906C174.503 406.763 84.6849 352.382 62.8277 263.443L60.8855 263.92ZM67.2783 163.435C55.2958 194.403 52.36 229.229 60.8855 263.92L62.8277 263.443C54.4032 229.163 57.3041 194.755 69.1435 164.156L67.2783 163.435ZM74.273 163.105C72.2998 163.59 70.3226 163.464 68.5363 162.85L67.8856 164.741C70.0243 165.477 72.393 165.626 74.7503 165.047L74.273 163.105ZM81.7358 150.779C83.0787 156.244 79.7375 161.762 74.273 163.105L74.7503 165.047C81.2874 163.441 85.2845 156.839 83.678 150.302L81.7358 150.779ZM77.0879 144.477C79.3346 145.826 81.0612 148.034 81.7358 150.779L83.678 150.302C82.8711 147.019 80.8026 144.375 78.1178 142.762L77.0879 144.477ZM183.814 60.8855C136.31 72.5597 98.5462 103.392 76.7262 143.138L78.4794 144.101C100.041 104.825 137.353 74.3628 184.291 62.8277L183.814 60.8855ZM386.848 183.814C364.728 93.8015 273.826 38.7647 183.814 60.8855L184.291 62.8277C273.231 40.9705 363.049 95.3515 384.906 184.291L386.848 183.814ZM66.3481 163.067C54.2918 194.222 51.3375 229.258 59.9144 264.159L61.8566 263.681C53.3807 229.192 56.3002 194.574 68.2133 163.789L66.3481 163.067ZM60.0049 156.12C60.9386 159.919 63.5607 162.86 66.8724 164.341L67.6889 162.515C64.916 161.275 62.7274 158.817 61.9471 155.642L60.0049 156.12ZM68.9326 141.374C62.3954 142.981 58.3984 149.582 60.0049 156.12L61.9471 155.642C60.6042 150.178 63.9454 144.659 69.4099 143.316L68.9326 141.374ZM77.1604 142.243C74.6923 141.045 71.8049 140.668 68.9326 141.374L69.4099 143.316C71.8124 142.726 74.2229 143.04 76.2868 144.042L77.1604 142.243ZM183.575 59.9144C135.786 71.6586 97.7965 102.677 75.847 142.662L77.6002 143.624C99.2917 104.11 136.83 73.4617 184.052 61.8566L183.575 59.9144ZM387.819 183.575C365.567 93.0266 274.124 37.6618 183.575 59.9144L184.052 61.8566C273.528 39.8676 363.888 94.5765 385.877 184.052L387.819 183.575ZM264.159 387.819C354.707 365.567 410.072 274.124 387.819 183.575L385.877 184.052C407.866 273.528 353.157 363.888 263.681 385.877L264.159 387.819ZM59.9144 264.159C82.1669 354.707 173.61 410.072 264.159 387.819L263.681 385.877C174.206 407.866 83.8456 353.157 61.8566 263.681L59.9144 264.159Z" fill="url(#paint0_linear_142_8003)" mask="url(#path-1-inside-1_142_8003)"/>
</g>
<defs>
<linearGradient id="paint0_linear_142_8003" x1="210.854" y1="-21.0107" x2="136.973" y2="428.487" gradientUnits="userSpaceOnUse">
<stop stop-color="#575757"/>
<stop offset="1" stop-color="#090909"/>
</linearGradient>
</defs>
</svg>
