<svg width="571" height="363" viewBox="0 0 571 363" fill="none" xmlns="http://www.w3.org/2000/svg">
<g opacity="0.15">
<mask id="path-1-inside-1_2624_67538" fill="white">
<path fill-rule="evenodd" clip-rule="evenodd" d="M561.366 218.016C598.774 370.235 505.702 523.958 353.483 561.366C201.265 598.774 47.5418 505.702 10.1336 353.483C-15.2446 250.216 19.4301 146.257 91.8847 78.3923C95.2891 81.4865 100.122 82.885 104.926 81.7045C112.595 79.8198 117.284 72.0748 115.399 64.4057C115.01 62.8206 114.37 61.3629 113.532 60.0642C143.64 37.0647 178.873 19.7534 218.016 10.1337C370.235 -27.2745 523.958 65.7977 561.366 218.016ZM112.791 59.0216C143.027 35.9317 178.406 18.5519 217.711 8.89262C370.615 -28.684 525.03 64.8073 562.607 217.711C600.184 370.615 506.692 525.03 353.788 562.607C200.884 600.184 46.4692 506.692 8.89253 353.788C-16.596 250.072 18.22 145.661 90.9776 77.4906C89.4011 75.7764 88.2219 73.6522 87.6268 71.2308C85.7421 63.5617 90.4313 55.8167 98.1005 53.932C103.745 52.5448 109.431 54.719 112.791 59.0216ZM492.803 234.867C520.905 349.219 450.986 464.701 336.634 492.803C222.282 520.906 106.799 450.987 78.6971 336.634C67.8659 292.561 71.5956 248.319 86.8183 208.977C89.3263 209.84 92.1034 210.016 94.8705 209.336C102.54 207.451 107.229 199.706 105.344 192.037C104.398 188.185 101.973 185.085 98.8214 183.192C126.543 132.697 174.517 93.5289 234.866 78.6979C349.218 50.5955 464.7 120.515 492.803 234.867ZM77.456 336.939C66.559 292.598 70.3125 248.088 85.6294 208.508C81.7411 206.769 78.6669 203.319 77.5717 198.862C75.687 191.193 80.3762 183.448 88.0454 181.564C91.4162 180.735 94.8016 181.177 97.6977 182.583C125.585 131.783 173.848 92.3773 234.561 77.4568C349.599 49.1859 465.773 119.524 494.044 234.562C522.315 349.599 451.976 465.774 336.939 494.044C221.901 522.315 105.727 451.977 77.456 336.939Z"/>
</mask>
<path d="M91.8847 78.3923L92.7443 77.4465L91.8717 76.6534L91.011 77.4595L91.8847 78.3923ZM113.532 60.0642L112.756 59.0486L111.818 59.7651L112.458 60.757L113.532 60.0642ZM112.791 59.0216L111.784 59.8082L112.562 60.8047L113.567 60.0374L112.791 59.0216ZM90.9776 77.4906L91.8514 78.4232L92.7754 77.5574L91.9182 76.6254L90.9776 77.4906ZM86.8183 208.977L87.234 207.769L86.0704 207.369L85.6264 208.516L86.8183 208.977ZM98.8214 183.192L97.7011 182.577L97.1095 183.654L98.1632 184.288L98.8214 183.192ZM85.6294 208.508L86.8213 208.969L87.2594 207.837L86.1511 207.341L85.6294 208.508ZM97.6977 182.583L97.1394 183.733L98.233 184.264L98.818 183.198L97.6977 182.583ZM353.788 562.607C506.692 525.03 600.184 370.615 562.607 217.711L560.125 218.321C597.365 369.855 504.711 522.885 353.178 560.125L353.788 562.607ZM8.89253 353.788C46.4692 506.692 200.884 600.184 353.788 562.607L353.178 560.125C201.645 597.365 48.6145 504.712 11.3747 353.178L8.89253 353.788ZM91.011 77.4595C18.233 145.627 -16.6004 250.055 8.89253 353.788L11.3747 353.178C-13.8888 250.378 20.6273 146.887 92.7584 79.3251L91.011 77.4595ZM104.621 80.4634C100.248 81.5381 95.8473 80.2668 92.7443 77.4465L91.0251 79.338C94.7309 82.7062 99.9968 84.2318 105.231 82.9456L104.621 80.4634ZM114.158 64.7107C115.875 71.6944 111.604 78.7471 104.621 80.4634L105.231 82.9456C113.585 80.8924 118.694 72.4553 116.64 64.1007L114.158 64.7107ZM112.458 60.757C113.22 61.9382 113.803 63.2651 114.158 64.7107L116.64 64.1007C116.217 62.3762 115.52 60.7876 114.606 59.3714L112.458 60.757ZM217.711 8.89262C178.394 18.555 143.002 35.9444 112.756 59.0486L114.308 61.0798C144.279 38.1851 179.352 20.9517 218.321 11.3748L217.711 8.89262ZM562.607 217.711C525.03 64.8073 370.615 -28.684 217.711 8.89262L218.321 11.3748C369.854 -25.8649 522.885 66.7882 560.125 218.321L562.607 217.711ZM217.406 7.65153C177.927 17.3536 142.389 34.8113 112.015 58.0059L113.567 60.0374C143.666 37.0521 178.885 19.7503 218.016 10.1337L217.406 7.65153ZM563.848 217.406C526.103 63.8169 370.996 -30.0936 217.406 7.65153L218.016 10.1337C370.235 -27.2745 523.958 65.7977 561.366 218.016L563.848 217.406ZM354.093 563.848C507.683 526.103 601.593 370.996 563.848 217.406L561.366 218.016C598.774 370.235 505.702 523.958 353.483 561.366L354.093 563.848ZM7.65144 354.093C45.3965 507.683 200.504 601.593 354.093 563.848L353.483 561.366C201.265 598.774 47.5418 505.702 10.1336 353.483L7.65144 354.093ZM90.1038 76.5579C17.0228 145.032 -17.9517 249.911 7.65144 354.093L10.1336 353.483C-15.2402 250.234 19.4172 146.291 91.8514 78.4232L90.1038 76.5579ZM91.9182 76.6254C90.4837 75.0657 89.4103 73.1329 88.8679 70.9258L86.3857 71.5358C87.0334 74.1714 88.3184 76.4872 90.0369 78.3557L91.9182 76.6254ZM88.8679 70.9258C87.1516 63.9421 91.4217 56.8894 98.4055 55.1731L97.7955 52.6909C89.4409 54.7441 84.3326 63.1812 86.3857 71.5358L88.8679 70.9258ZM98.4055 55.1731C103.544 53.9103 108.722 55.8878 111.784 59.8082L113.798 58.2351C110.14 53.5503 103.947 51.1792 97.7955 52.6909L98.4055 55.1731ZM336.939 494.044C451.976 465.774 522.315 349.599 494.044 234.562L491.562 235.172C519.495 348.838 449.995 463.628 336.329 491.562L336.939 494.044ZM77.456 336.939C105.727 451.977 221.901 522.315 336.939 494.044L336.329 491.562C222.662 519.496 107.872 449.996 79.9382 336.329L77.456 336.939ZM85.6264 208.516C70.3123 248.094 66.5602 292.603 77.456 336.939L79.9382 336.329C69.1715 292.518 72.879 248.544 88.0102 209.439L85.6264 208.516ZM94.5655 208.095C92.0438 208.715 89.5169 208.554 87.234 207.769L86.4025 210.186C89.1357 211.126 92.1629 211.317 95.1755 210.577L94.5655 208.095ZM104.103 192.342C105.819 199.326 101.549 206.379 94.5655 208.095L95.1755 210.577C103.53 208.524 108.638 200.087 106.585 191.732L104.103 192.342ZM98.1632 184.288C101.035 186.012 103.241 188.834 104.103 192.342L106.585 191.732C105.554 187.536 102.911 184.158 99.4795 182.096L98.1632 184.288ZM234.561 77.4568C173.85 92.3767 125.587 131.781 97.7011 182.577L99.9417 183.807C127.498 133.612 175.183 94.6811 235.171 79.9389L234.561 77.4568ZM494.044 234.562C465.773 119.524 349.599 49.1859 234.561 77.4568L235.171 79.9389C348.838 52.005 463.628 121.505 491.562 235.172L494.044 234.562ZM84.4375 208.047C69.0292 247.863 65.2534 292.641 76.2149 337.244L78.6971 336.634C67.8646 292.556 71.5959 248.313 86.8213 208.969L84.4375 208.047ZM76.3306 199.167C77.5239 204.023 80.875 207.782 85.1077 209.675L86.1511 207.341C82.6072 205.757 79.81 202.615 78.8128 198.557L76.3306 199.167ZM87.7404 180.322C79.3858 182.376 74.2774 190.813 76.3306 199.167L78.8128 198.557C77.0965 191.574 81.3666 184.521 88.3504 182.805L87.7404 180.322ZM98.256 181.433C95.1016 179.902 91.4114 179.42 87.7404 180.322L88.3504 182.805C91.421 182.05 94.5017 182.452 97.1394 183.733L98.256 181.433ZM234.256 76.2157C173.181 91.2251 124.629 130.867 96.5774 181.968L98.818 183.198C126.54 132.698 174.514 93.5294 234.866 78.6979L234.256 76.2157ZM495.285 234.257C466.846 118.534 349.979 47.7764 234.256 76.2157L234.866 78.6979C349.218 50.5955 464.7 120.515 492.803 234.867L495.285 234.257ZM337.244 495.286C452.967 466.846 523.724 349.98 495.285 234.257L492.803 234.867C520.905 349.219 450.986 464.701 336.634 492.803L337.244 495.286ZM76.2149 337.244C104.654 452.967 221.521 523.725 337.244 495.286L336.634 492.803C222.282 520.906 106.799 450.987 78.6971 336.634L76.2149 337.244Z" fill="url(#paint0_linear_2624_67538)" mask="url(#path-1-inside-1_2624_67538)"/>
</g>
<defs>
<linearGradient id="paint0_linear_2624_67538" x1="269.119" y1="-27.2089" x2="174.698" y2="547.259" gradientUnits="userSpaceOnUse">
<stop stop-color="#575757"/>
<stop offset="1" stop-color="#090909"/>
</linearGradient>
</defs>
</svg>
