<svg width="136" height="144" viewBox="0 0 136 144" fill="none" xmlns="http://www.w3.org/2000/svg">
<path d="M79.6875 63.7793H56.3125C55.608 63.7793 54.9324 64.0592 54.4342 64.5573C53.9361 65.0554 53.6562 65.7311 53.6562 66.4355V85.5605C53.6562 86.265 53.9361 86.9407 54.4342 87.4388C54.9324 87.9369 55.608 88.2168 56.3125 88.2168H79.6875C80.392 88.2168 81.0676 87.9369 81.5658 87.4388C82.0639 86.9407 82.3438 86.265 82.3438 85.5605V66.4355C82.3438 65.7311 82.0639 65.0554 81.5658 64.5573C81.0676 64.0592 80.392 63.7793 79.6875 63.7793ZM79.1562 85.0293H56.8438V66.9668H79.1562V85.0293ZM58.9688 71.2168C58.9688 70.7965 59.0934 70.3857 59.3269 70.0362C59.5604 69.6868 59.8923 69.4144 60.2805 69.2536C60.6688 69.0927 61.0961 69.0506 61.5083 69.1326C61.9205 69.2146 62.2992 69.417 62.5964 69.7142C62.8935 70.0114 63.0959 70.39 63.1779 70.8022C63.2599 71.2144 63.2178 71.6417 63.057 72.03C62.8962 72.4183 62.6238 72.7502 62.2743 72.9837C61.9249 73.2172 61.514 73.3418 61.0938 73.3418C60.5302 73.3418 59.9897 73.1179 59.5911 72.7194C59.1926 72.3209 58.9688 71.7804 58.9688 71.2168ZM65.3438 71.2168C65.3438 70.7965 65.4684 70.3857 65.7019 70.0362C65.9354 69.6868 66.2673 69.4144 66.6555 69.2536C67.0438 69.0927 67.4711 69.0506 67.8833 69.1326C68.2955 69.2146 68.6742 69.417 68.9714 69.7142C69.2685 70.0114 69.4709 70.39 69.5529 70.8022C69.6349 71.2144 69.5928 71.6417 69.432 72.03C69.2712 72.4183 68.9988 72.7502 68.6493 72.9837C68.2999 73.2172 67.889 73.3418 67.4688 73.3418C66.9052 73.3418 66.3647 73.1179 65.9661 72.7194C65.5676 72.3209 65.3438 71.7804 65.3438 71.2168Z" fill="#1E1E1E"/>
<path d="M66.9372 128.194L57.3747 136.694C57.0577 136.975 56.6417 137.12 56.2183 137.095C55.7948 137.07 55.3986 136.878 55.1169 136.561C54.8351 136.244 54.6907 135.828 54.7157 135.404C54.7406 134.981 54.9327 134.585 55.2497 134.303L63.4721 126.998L55.2497 119.694C54.9327 119.412 54.7406 119.016 54.7157 118.592C54.6907 118.169 54.8351 117.753 55.1169 117.436C55.3986 117.119 55.7948 116.927 56.2183 116.902C56.6417 116.877 57.0577 117.021 57.3747 117.303L66.9372 125.803C67.1068 125.952 67.2426 126.136 67.3356 126.342C67.4286 126.549 67.4768 126.772 67.4768 126.998C67.4768 127.224 67.4286 127.448 67.3356 127.654C67.2426 127.86 67.1068 128.044 66.9372 128.194ZM79.6872 133.904H66.9372C66.5145 133.904 66.1091 134.072 65.8102 134.371C65.5113 134.67 65.3434 135.076 65.3434 135.498C65.3434 135.921 65.5113 136.326 65.8102 136.625C66.1091 136.924 66.5145 137.092 66.9372 137.092H79.6872C80.1099 137.092 80.5152 136.924 80.8141 136.625C81.113 136.326 81.2809 135.921 81.2809 135.498C81.2809 135.076 81.113 134.67 80.8141 134.371C80.5152 134.072 80.1099 133.904 79.6872 133.904Z" fill="#8A8A8A"/>
<path d="M33.07 13.0348L25.6325 4.53477C25.4834 4.36428 25.2997 4.22753 25.0936 4.13363C24.8874 4.03974 24.6637 3.99085 24.4372 3.99023H9.56219C9.3357 3.99085 9.11195 4.03974 8.90583 4.13363C8.69972 4.22753 8.51599 4.36428 8.36688 4.53477L0.929383 13.0348C0.669394 13.332 0.528985 13.7151 0.535364 14.1099C0.541744 14.5047 0.694459 14.8831 0.963914 15.1717L15.8389 31.1092C15.988 31.2689 16.1684 31.3962 16.3687 31.4832C16.5691 31.5702 16.7852 31.6151 17.0037 31.6151C17.2221 31.6151 17.4383 31.5702 17.6386 31.4832C17.839 31.3962 18.0193 31.2689 18.1684 31.1092L33.0434 15.1717C33.3118 14.8821 33.4631 14.5032 33.468 14.1084C33.4729 13.7135 33.3311 13.331 33.07 13.0348ZM28.3618 12.4902H24.1716L20.1872 7.17773H23.7134L28.3618 12.4902ZM9.54626 15.6777L12.3606 22.7168L5.79165 15.6777H9.54626ZM21.0213 15.6777L16.9997 25.7303L12.9781 15.6777H21.0213ZM13.8122 12.4902L16.9997 8.24023L20.1872 12.4902H13.8122ZM24.4531 15.6777H28.2077L21.6388 22.7168L24.4531 15.6777ZM10.286 7.17773H13.8122L9.82782 12.4902H5.63759L10.286 7.17773Z" fill="#313131"/>
<path d="M26.0312 114.716C23.5902 113.386 20.3841 112.654 17 112.654C13.6159 112.654 10.4098 113.386 7.96875 114.716C5.22883 116.212 3.71875 118.309 3.71875 120.623V133.373C3.71875 135.687 5.22883 137.784 7.96875 139.281C10.4059 140.609 13.612 141.342 17 141.342C20.388 141.342 23.5902 140.61 26.0312 139.281C28.7752 137.784 30.2812 135.687 30.2812 133.373V120.623C30.2812 118.309 28.7712 116.212 26.0312 114.716ZM27.0938 126.998C27.0938 129.256 22.9487 131.779 17 131.779C11.0513 131.779 6.90625 129.256 6.90625 126.998V125.874C7.2486 126.112 7.60326 126.331 7.96875 126.531C10.4059 127.859 13.612 128.592 17 128.592C20.388 128.592 23.5902 127.86 26.0312 126.531C26.3967 126.331 26.7514 126.112 27.0938 125.874V126.998ZM17 115.842C22.9487 115.842 27.0938 118.365 27.0938 120.623C27.0938 122.881 22.9487 125.404 17 125.404C11.0513 125.404 6.90625 122.881 6.90625 120.623C6.90625 118.365 11.0513 115.842 17 115.842ZM17 138.154C11.0513 138.154 6.90625 135.631 6.90625 133.373V132.249C7.2486 132.487 7.60326 132.706 7.96875 132.906C10.4059 134.234 13.612 134.967 17 134.967C20.388 134.967 23.5902 134.235 26.0312 132.906C26.3967 132.706 26.7514 132.487 27.0938 132.249V133.373C27.0938 135.631 22.9487 138.154 17 138.154Z" fill="#1E1E1E"/>
<path d="M123.252 63.7793C121.047 63.7804 118.882 64.3779 116.988 65.5086C115.095 66.6392 113.542 68.261 112.494 70.2021C111.276 70.0762 110.044 70.1996 108.875 70.5646C107.706 70.9297 106.623 71.5289 105.692 72.3257C104.762 73.1225 104.003 74.1003 103.462 75.1996C102.922 76.2989 102.61 77.4967 102.547 78.7201C102.484 79.9435 102.67 81.167 103.095 82.3161C103.52 83.4652 104.174 84.5159 105.017 85.4043C105.861 86.2926 106.876 87.0001 108.002 87.4836C109.128 87.9671 110.34 88.2166 111.565 88.2168H123.252C126.493 88.2168 129.601 86.9295 131.892 84.638C134.184 82.3465 135.471 79.2387 135.471 75.998C135.471 72.7574 134.184 69.6495 131.892 67.3581C129.601 65.0666 126.493 63.7793 123.252 63.7793ZM123.252 85.0293H111.565C110.015 85.0613 108.516 84.4764 107.397 83.4032C106.279 82.3299 105.632 80.8563 105.6 79.3064C105.568 77.7565 106.153 76.2574 107.226 75.1389C108.3 74.0203 109.773 73.3739 111.323 73.3418C111.13 74.2139 111.033 75.1047 111.034 75.998C111.034 76.4207 111.201 76.8261 111.5 77.125C111.799 77.4239 112.205 77.5918 112.627 77.5918C113.05 77.5918 113.455 77.4239 113.754 77.125C114.053 76.8261 114.221 76.4207 114.221 75.998C114.221 74.2118 114.751 72.4657 115.743 70.9806C116.735 69.4954 118.146 68.3378 119.796 67.6543C121.446 66.9707 123.262 66.7919 125.014 67.1403C126.766 67.4888 128.375 68.3489 129.638 69.612C130.901 70.875 131.762 72.4842 132.11 74.2361C132.458 75.988 132.28 77.8039 131.596 79.4542C130.913 81.1044 129.755 82.5149 128.27 83.5073C126.785 84.4996 125.039 85.0293 123.252 85.0293Z" fill="#313131"/>
<path d="M105.292 126.146C105.459 126.272 105.65 126.364 105.853 126.416C106.055 126.469 106.267 126.48 106.474 126.451C106.681 126.422 106.881 126.352 107.061 126.245C107.241 126.139 107.399 125.998 107.525 125.83C108.118 125.038 108.888 124.396 109.774 123.953C110.659 123.51 111.635 123.279 112.625 123.279C113.615 123.279 114.591 123.51 115.477 123.953C116.362 124.396 117.132 125.038 117.726 125.83C117.98 126.168 118.357 126.392 118.776 126.451C119.194 126.511 119.619 126.402 119.957 126.148C120.077 126.057 120.183 125.95 120.273 125.83C120.867 125.038 121.637 124.396 122.522 123.953C123.408 123.51 124.384 123.279 125.374 123.279C126.364 123.279 127.34 123.51 128.225 123.953C129.111 124.396 129.881 125.038 130.475 125.83C130.599 126.001 130.756 126.145 130.937 126.254C131.117 126.363 131.318 126.435 131.527 126.466C131.735 126.497 131.948 126.487 132.153 126.435C132.357 126.383 132.55 126.291 132.718 126.164C132.887 126.038 133.029 125.879 133.136 125.697C133.243 125.515 133.312 125.313 133.341 125.104C133.369 124.895 133.356 124.682 133.301 124.479C133.247 124.275 133.152 124.084 133.023 123.917C132.137 122.729 130.986 121.765 129.663 121.098C130.242 120.306 130.591 119.369 130.67 118.391C130.749 117.414 130.556 116.433 130.112 115.558C129.668 114.683 128.99 113.948 128.154 113.435C127.318 112.922 126.356 112.65 125.375 112.65C124.394 112.65 123.432 112.922 122.595 113.435C121.759 113.948 121.082 114.683 120.638 115.558C120.193 116.433 120 117.414 120.079 118.391C120.159 119.369 120.507 120.306 121.086 121.098C120.33 121.478 119.628 121.957 119 122.523C118.371 121.956 117.67 121.477 116.913 121.097C117.492 120.305 117.841 119.368 117.92 118.39C117.999 117.412 117.806 116.432 117.362 115.557C116.918 114.682 116.24 113.947 115.404 113.434C114.568 112.921 113.606 112.649 112.625 112.649C111.644 112.649 110.682 112.921 109.845 113.434C109.009 113.947 108.332 114.682 107.888 115.557C107.443 116.432 107.25 117.412 107.329 118.39C107.409 119.368 107.757 120.305 108.336 121.097C107.013 121.763 105.863 122.728 104.976 123.915C104.722 124.253 104.613 124.678 104.672 125.096C104.731 125.515 104.954 125.892 105.292 126.146ZM125.375 115.842C125.795 115.842 126.206 115.966 126.555 116.2C126.905 116.433 127.177 116.765 127.338 117.153C127.499 117.542 127.541 117.969 127.459 118.381C127.377 118.793 127.174 119.172 126.877 119.469C126.58 119.766 126.201 119.969 125.789 120.051C125.377 120.133 124.95 120.091 124.561 119.93C124.173 119.769 123.841 119.497 123.608 119.147C123.374 118.798 123.25 118.387 123.25 117.967C123.25 117.403 123.474 116.862 123.872 116.464C124.271 116.065 124.811 115.842 125.375 115.842ZM112.625 115.842C113.045 115.842 113.456 115.966 113.805 116.2C114.155 116.433 114.427 116.765 114.588 117.153C114.749 117.542 114.791 117.969 114.709 118.381C114.627 118.793 114.424 119.172 114.127 119.469C113.83 119.766 113.451 119.969 113.039 120.051C112.627 120.133 112.2 120.091 111.811 119.93C111.423 119.769 111.091 119.497 110.858 119.147C110.624 118.798 110.5 118.387 110.5 117.967C110.5 117.403 110.724 116.862 111.122 116.464C111.521 116.065 112.061 115.842 112.625 115.842ZM129.663 135.972C130.242 135.18 130.591 134.243 130.67 133.265C130.749 132.287 130.556 131.307 130.112 130.432C129.668 129.557 128.99 128.822 128.154 128.309C127.318 127.796 126.356 127.524 125.375 127.524C124.394 127.524 123.432 127.796 122.595 128.309C121.759 128.822 121.082 129.557 120.638 130.432C120.193 131.307 120 132.287 120.079 133.265C120.159 134.243 120.507 135.18 121.086 135.972C120.33 136.352 119.628 136.831 119 137.397C118.371 136.831 117.669 136.352 116.913 135.972C117.492 135.18 117.841 134.243 117.92 133.265C117.999 132.287 117.806 131.307 117.362 130.432C116.918 129.557 116.24 128.822 115.404 128.309C114.568 127.796 113.606 127.524 112.625 127.524C111.644 127.524 110.682 127.796 109.845 128.309C109.009 128.822 108.332 129.557 107.888 130.432C107.443 131.307 107.25 132.287 107.329 133.265C107.409 134.243 107.757 135.18 108.336 135.972C107.013 136.638 105.863 137.603 104.976 138.79C104.722 139.128 104.613 139.553 104.672 139.972C104.732 140.39 104.955 140.768 105.293 141.022C105.631 141.276 106.056 141.385 106.474 141.326C106.893 141.267 107.271 141.043 107.525 140.705C108.118 139.913 108.888 139.271 109.774 138.828C110.659 138.385 111.635 138.154 112.625 138.154C113.615 138.154 114.591 138.385 115.477 138.828C116.362 139.271 117.132 139.913 117.726 140.705C117.98 141.043 118.357 141.267 118.776 141.326C119.194 141.386 119.619 141.277 119.957 141.023C120.077 140.932 120.183 140.825 120.273 140.705C120.867 139.913 121.637 139.271 122.522 138.828C123.408 138.385 124.384 138.154 125.374 138.154C126.364 138.154 127.34 138.385 128.225 138.828C129.111 139.271 129.881 139.913 130.475 140.705C130.599 140.876 130.756 141.02 130.937 141.129C131.117 141.238 131.318 141.31 131.527 141.341C131.735 141.372 131.948 141.362 132.153 141.31C132.357 141.258 132.55 141.166 132.718 141.039C132.887 140.913 133.029 140.754 133.136 140.572C133.243 140.39 133.312 140.188 133.341 139.979C133.369 139.77 133.356 139.557 133.301 139.354C133.247 139.15 133.152 138.959 133.023 138.792C132.137 137.604 130.987 136.638 129.663 135.972ZM112.625 130.717C113.045 130.717 113.456 130.841 113.805 131.075C114.155 131.308 114.427 131.64 114.588 132.028C114.749 132.417 114.791 132.844 114.709 133.256C114.627 133.668 114.424 134.047 114.127 134.344C113.83 134.641 113.451 134.844 113.039 134.926C112.627 135.008 112.2 134.966 111.811 134.805C111.423 134.644 111.091 134.372 110.858 134.022C110.624 133.673 110.5 133.262 110.5 132.842C110.5 132.278 110.724 131.737 111.122 131.339C111.521 130.94 112.061 130.717 112.625 130.717ZM125.375 130.717C125.795 130.717 126.206 130.841 126.555 131.075C126.905 131.308 127.177 131.64 127.338 132.028C127.499 132.417 127.541 132.844 127.459 133.256C127.377 133.668 127.174 134.047 126.877 134.344C126.58 134.641 126.201 134.844 125.789 134.926C125.377 135.008 124.95 134.966 124.561 134.805C124.173 134.644 123.841 134.372 123.608 134.022C123.374 133.673 123.25 133.262 123.25 132.842C123.25 132.278 123.474 131.737 123.872 131.339C124.271 130.94 124.811 130.717 125.375 130.717Z" fill="#8A8A8A"/>
</svg>
