<svg width="213" height="150" viewBox="0 0 213 150" fill="none" xmlns="http://www.w3.org/2000/svg">
<path d="M76.0818 86.8341L78.5686 88.5122V88.5122L76.0818 86.8341ZM89.521 86.9285L91.8877 85.0849V85.0849L89.521 86.9285ZM119.442 117.292L117.466 119.549L117.466 119.549L119.442 117.292ZM129.563 115.935L132.049 117.613L129.563 115.935ZM181 16C181 24.8366 188.163 32 197 32C205.837 32 213 24.8366 213 16C213 7.16344 205.837 0 197 0C188.163 0 181 7.16344 181 16ZM-29.5132 248.678L78.5686 88.5122L73.5951 85.156L-34.4868 245.322L-29.5132 248.678ZM87.1543 88.772C96.1464 100.316 109.806 112.841 117.466 119.549L121.419 115.035C113.782 108.347 100.501 96.1423 91.8877 85.0849L87.1543 88.772ZM132.049 117.613L199.487 17.6781L194.513 14.3219L127.076 114.257L132.049 117.613ZM117.466 119.549C121.956 123.481 128.751 122.502 132.049 117.613L127.076 114.257C125.757 116.211 123.139 116.541 121.419 115.035L117.466 119.549ZM78.5686 88.5122C79.4087 87.2672 80.8858 86.5687 82.6306 86.6031C84.3939 86.6379 86.1089 87.43 87.1543 88.772L91.8877 85.0849C89.6133 82.165 86.1197 80.6708 82.7488 80.6043C79.3595 80.5375 75.7769 81.9228 73.5951 85.156L78.5686 88.5122Z" fill="url(#paint0_linear_771_1124)"/>
<defs>
<linearGradient id="paint0_linear_771_1124" x1="197" y1="0.505992" x2="9.30843" y2="231.694" gradientUnits="userSpaceOnUse">
<stop stop-color="white"/>
<stop offset="0.566328" stop-color="#DFDFDF"/>
<stop offset="0.767055" stop-color="#B3B3B3" stop-opacity="0"/>
</linearGradient>
</defs>
</svg>
