<svg width="213" height="160" viewBox="0 0 176 160" fill="none" xmlns="http://www.w3.org/2000/svg">
<path d="M39.0818 86.8341L41.5686 88.5122V88.5122L39.0818 86.8341ZM52.521 86.9285L54.8877 85.0849V85.0849L52.521 86.9285ZM82.4424 117.292L80.4659 119.549L80.4659 119.549L82.4424 117.292ZM92.5627 115.935L95.0495 117.613L92.5627 115.935ZM144 16C144 24.8366 151.163 32 160 32C168.837 32 176 24.8366 176 16C176 7.16344 168.837 0 160 0C151.163 0 144 7.16344 144 16ZM-66.5132 248.678L41.5686 88.5122L36.5951 85.156L-71.4868 245.322L-66.5132 248.678ZM50.1543 88.772C59.1464 100.316 72.8062 112.841 80.4659 119.549L84.4188 115.035C76.7824 108.347 63.5009 96.1423 54.8877 85.0849L50.1543 88.772ZM95.0495 117.613L162.487 17.6781L157.513 14.3219L90.076 114.257L95.0495 117.613ZM80.4659 119.549C84.9564 123.481 91.7505 122.502 95.0495 117.613L90.076 114.257C88.7575 116.211 86.1385 116.541 84.4188 115.035L80.4659 119.549ZM41.5686 88.5122C42.4087 87.2672 43.8858 86.5687 45.6306 86.6031C47.3939 86.6379 49.1089 87.43 50.1543 88.772L54.8877 85.0849C52.6133 82.165 49.1197 80.6708 45.7488 80.6043C42.3595 80.5375 38.7769 81.9228 36.5951 85.156L41.5686 88.5122Z" fill="url(#paint0_linear_786_13666)"/>
<path d="M39.0818 86.8341L41.5686 88.5122V88.5122L39.0818 86.8341ZM52.521 86.9285L54.8877 85.0849V85.0849L52.521 86.9285ZM82.4424 117.292L80.4659 119.549L80.4659 119.549L82.4424 117.292ZM92.5627 115.935L95.0495 117.613L92.5627 115.935ZM144 16C144 24.8366 151.163 32 160 32C168.837 32 176 24.8366 176 16C176 7.16344 168.837 0 160 0C151.163 0 144 7.16344 144 16ZM-66.5132 248.678L41.5686 88.5122L36.5951 85.156L-71.4868 245.322L-66.5132 248.678ZM50.1543 88.772C59.1464 100.316 72.8062 112.841 80.4659 119.549L84.4188 115.035C76.7824 108.347 63.5009 96.1423 54.8877 85.0849L50.1543 88.772ZM95.0495 117.613L162.487 17.6781L157.513 14.3219L90.076 114.257L95.0495 117.613ZM80.4659 119.549C84.9564 123.481 91.7505 122.502 95.0495 117.613L90.076 114.257C88.7575 116.211 86.1385 116.541 84.4188 115.035L80.4659 119.549ZM41.5686 88.5122C42.4087 87.2672 43.8858 86.5687 45.6306 86.6031C47.3939 86.6379 49.1089 87.43 50.1543 88.772L54.8877 85.0849C52.6133 82.165 49.1197 80.6708 45.7488 80.6043C42.3595 80.5375 38.7769 81.9228 36.5951 85.156L41.5686 88.5122Z" fill="url(#paint1_linear_786_13666)"/>
<defs>
<linearGradient id="paint0_linear_786_13666" x1="160" y1="0.505992" x2="-27.6916" y2="231.694" gradientUnits="userSpaceOnUse">
<stop stop-color="white"/>
<stop offset="0.566328" stop-color="#DFDFDF"/>
<stop offset="0.767055" stop-color="#B3B3B3" stop-opacity="0"/>
</linearGradient>
<linearGradient id="paint1_linear_786_13666" x1="160" y1="0.505992" x2="-27.6916" y2="231.694" gradientUnits="userSpaceOnUse">
<stop stop-color="#0099FF"/>
<stop offset="0.566328" stop-color="#36A2EE"/>
<stop offset="0.767055" stop-color="#B3B3B3" stop-opacity="0"/>
</linearGradient>
</defs>
</svg>
