<svg width="205" height="142" viewBox="0 0 205 142" fill="none" xmlns="http://www.w3.org/2000/svg">
<path d="M189 8C189 12.4183 192.582 16 197 16C201.418 16 205 12.4183 205 8C205 3.58172 201.418 0 197 0C192.582 0 189 3.58172 189 8ZM129.674 89.0611L130.627 87.9034L129.674 89.0611ZM139.517 87.7309L140.734 88.6081L139.517 87.7309ZM92.1674 66.1605L90.9507 65.2833L92.1674 66.1605ZM1.21675 194.877L93.3842 67.0377L90.9507 65.2833L-1.21675 193.123L1.21675 194.877ZM104.305 67.1557C111.723 75.7853 122.312 84.9393 128.72 90.2188L130.627 87.9034C124.239 82.6397 113.819 73.6221 106.58 65.2001L104.305 67.1557ZM140.734 88.6081C151.959 73.0379 182.773 30.2977 198.217 8.87723L195.783 7.12277C180.34 28.5433 149.526 71.2834 138.3 86.8536L140.734 88.6081ZM128.72 90.2188C132.457 93.2978 137.93 92.4977 140.734 88.6081L138.3 86.8536C136.482 89.3757 132.991 89.8508 130.627 87.9034L128.72 90.2188ZM93.3842 67.0377C94.5732 65.3886 96.5332 64.5611 98.6504 64.5938C100.776 64.6267 102.909 65.5317 104.305 67.1557L106.58 65.2001C104.57 62.8618 101.593 61.639 98.6968 61.5942C95.7919 61.5492 92.8173 62.6942 90.9507 65.2833L93.3842 67.0377Z" fill="url(#paint0_linear_553_9314)"/>
<defs>
<linearGradient id="paint0_linear_553_9314" x1="197" y1="-4.47569" x2="48.2211" y2="191.315" gradientUnits="userSpaceOnUse">
<stop stop-color="#4D4D4D"/>
<stop offset="0.566328" stop-color="#B3B3B3"/>
<stop offset="0.767055" stop-color="#B3B3B3" stop-opacity="0"/>
</linearGradient>
</defs>
</svg>
