<svg width="418" height="363" viewBox="0 0 418 363" fill="none" xmlns="http://www.w3.org/2000/svg">
<g opacity="0.15">
<mask id="path-1-inside-1_2731_53431" fill="white">
<path fill-rule="evenodd" clip-rule="evenodd" d="M561.366 218.017C598.775 370.235 505.702 523.958 353.484 561.366C201.265 598.774 47.5423 505.702 10.1341 353.484C-15.2441 250.217 19.4306 146.257 91.8852 78.3925C95.2896 81.4868 100.123 82.8852 104.926 81.7047C112.595 79.82 117.285 72.0751 115.4 64.4059C115.01 62.8209 114.37 61.3632 113.533 60.0644C143.641 37.065 178.873 19.7536 218.017 10.134C370.235 -27.2742 523.958 65.798 561.366 218.017ZM112.792 59.0219C143.028 35.9319 178.407 18.5522 217.712 8.89287C370.616 -28.6838 525.031 64.8076 562.608 217.712C600.184 370.616 506.693 525.031 353.789 562.607C200.885 600.184 46.4697 506.693 8.89302 353.789C-16.5955 250.073 18.2205 145.662 90.9781 77.4908C89.4015 75.7767 88.2223 73.6524 87.6273 71.2311C85.7426 63.5619 90.4318 55.817 98.101 53.9322C103.746 52.545 109.432 54.7193 112.792 59.0219ZM492.803 234.867C520.906 349.219 450.986 464.701 336.634 492.804C222.282 520.906 106.8 450.987 78.6976 336.635C67.8663 292.561 71.5961 248.32 86.8188 208.978C89.3268 209.84 92.1039 210.016 94.871 209.336C102.54 207.452 107.229 199.707 105.345 192.037C104.398 188.185 101.973 185.085 98.8219 183.192C126.543 132.697 174.517 93.5291 234.866 78.6981C349.219 50.5957 464.701 120.515 492.803 234.867ZM77.4565 336.94C66.5595 292.598 70.313 248.088 85.6299 208.508C81.7416 206.77 78.6674 203.319 77.5722 198.863C75.6875 191.193 80.3767 183.448 88.0458 181.564C91.4167 180.735 94.8021 181.177 97.6982 182.583C125.585 131.783 173.848 92.3775 234.561 77.457C349.599 49.1862 465.773 119.524 494.044 234.562C522.315 349.599 451.977 465.774 336.939 494.045C221.902 522.316 105.727 451.977 77.4565 336.94Z"/>
</mask>
<path d="M91.8852 78.3925L92.7448 77.4468L91.8722 76.6537L91.0115 77.4598L91.8852 78.3925ZM113.533 60.0644L112.757 59.0488L111.819 59.7653L112.459 60.7572L113.533 60.0644ZM112.792 59.0219L111.784 59.8085L112.562 60.8049L113.567 60.0376L112.792 59.0219ZM90.9781 77.4908L91.8519 78.4234L92.7759 77.5577L91.9187 76.6257L90.9781 77.4908ZM86.8188 208.978L87.2345 207.769L86.0709 207.369L85.6269 208.516L86.8188 208.978ZM98.8219 183.192L97.7016 182.577L97.11 183.655L98.1637 184.288L98.8219 183.192ZM85.6299 208.508L86.8218 208.97L87.2599 207.837L86.1516 207.342L85.6299 208.508ZM97.6982 182.583L97.1399 183.733L98.2335 184.264L98.8185 183.198L97.6982 182.583ZM353.789 562.607C506.693 525.031 600.184 370.616 562.608 217.712L560.125 218.322C597.365 369.855 504.712 522.885 353.179 560.125L353.789 562.607ZM8.89302 353.789C46.4697 506.693 200.885 600.184 353.789 562.607L353.179 560.125C201.646 597.365 48.615 504.712 11.3752 353.179L8.89302 353.789ZM91.0115 77.4598C18.2335 145.627 -16.5999 250.055 8.89302 353.789L11.3752 353.179C-13.8883 250.378 20.6278 146.887 92.7589 79.3253L91.0115 77.4598ZM104.621 80.4637C100.248 81.5383 95.8478 80.2671 92.7448 77.4468L91.0256 79.3383C94.7314 82.7065 99.9972 84.2321 105.231 82.9458L104.621 80.4637ZM114.159 64.7109C115.875 71.6946 111.605 78.7474 104.621 80.4637L105.231 82.9458C113.586 80.8927 118.694 72.4555 116.641 64.1009L114.159 64.7109ZM112.459 60.7572C113.221 61.9384 113.803 63.2653 114.159 64.7109L116.641 64.1009C116.217 62.3764 115.52 60.7879 114.607 59.3717L112.459 60.7572ZM217.712 8.89287C178.394 18.5553 143.002 35.9446 112.757 59.0488L114.309 61.08C144.279 38.1853 179.352 20.952 218.322 11.3751L217.712 8.89287ZM562.608 217.712C525.031 64.8076 370.616 -28.6838 217.712 8.89287L218.322 11.3751C369.855 -25.8647 522.886 66.7884 560.125 218.322L562.608 217.712ZM217.407 7.65177C177.928 17.3538 142.389 34.8115 112.016 58.0062L113.567 60.0376C143.666 37.0523 178.886 19.7505 218.017 10.134L217.407 7.65177ZM563.849 217.407C526.104 63.8171 370.996 -30.0933 217.407 7.65177L218.017 10.134C370.235 -27.2742 523.958 65.798 561.366 218.017L563.849 217.407ZM354.094 563.848C507.683 526.103 601.594 370.996 563.849 217.407L561.366 218.017C598.775 370.235 505.702 523.958 353.484 561.366L354.094 563.848ZM7.65193 354.094C45.397 507.683 200.504 601.594 354.094 563.848L353.484 561.366C201.265 598.774 47.5423 505.702 10.1341 353.484L7.65193 354.094ZM90.1042 76.5582C17.0233 145.032 -17.9512 249.911 7.65193 354.094L10.1341 353.484C-15.2397 250.234 19.4177 146.291 91.8519 78.4234L90.1042 76.5582ZM91.9187 76.6257C90.4842 75.0659 89.4108 73.1331 88.8684 70.9261L86.3862 71.5361C87.0339 74.1717 88.3189 76.4874 90.0374 78.356L91.9187 76.6257ZM88.8684 70.9261C87.1521 63.9423 91.4222 56.8896 98.406 55.1733L97.796 52.6911C89.4414 54.7443 84.333 63.1815 86.3862 71.5361L88.8684 70.9261ZM98.406 55.1733C103.544 53.9105 108.723 55.888 111.784 59.8085L113.799 58.2353C110.141 53.5505 103.947 51.1794 97.796 52.6911L98.406 55.1733ZM336.939 494.045C451.977 465.774 522.315 349.6 494.044 234.562L491.562 235.172C519.496 348.839 449.996 463.629 336.329 491.563L336.939 494.045ZM77.4565 336.94C105.727 451.977 221.902 522.316 336.939 494.045L336.329 491.563C222.663 519.496 107.873 449.996 79.9387 336.33L77.4565 336.94ZM85.6269 208.516C70.3127 248.095 66.5607 292.604 77.4565 336.94L79.9387 336.33C69.172 292.519 72.8795 248.544 88.0107 209.439L85.6269 208.516ZM94.566 208.095C92.0443 208.715 89.5174 208.555 87.2345 207.769L86.403 210.186C89.1362 211.126 92.1634 211.318 95.176 210.577L94.566 208.095ZM104.104 192.342C105.82 199.326 101.55 206.379 94.566 208.095L95.176 210.577C103.531 208.524 108.639 200.087 106.586 191.732L104.104 192.342ZM98.1637 184.288C101.035 186.013 103.242 188.834 104.104 192.342L106.586 191.732C105.555 187.537 102.911 184.158 99.48 182.097L98.1637 184.288ZM234.561 77.457C173.85 92.3769 125.588 131.782 97.7016 182.577L99.9422 183.807C127.499 133.613 175.184 94.6813 235.171 79.9392L234.561 77.457ZM494.044 234.562C465.773 119.524 349.599 49.1862 234.561 77.457L235.171 79.9392C348.838 52.0053 463.628 121.505 491.562 235.172L494.044 234.562ZM84.438 208.047C69.0297 247.863 65.2539 292.641 76.2154 337.245L78.6976 336.635C67.8651 292.556 71.5964 248.313 86.8218 208.97L84.438 208.047ZM76.3311 199.168C77.5244 204.023 80.8755 207.782 85.1081 209.675L86.1516 207.342C82.6077 205.757 79.8105 202.615 78.8133 198.558L76.3311 199.168ZM87.7408 180.323C79.3862 182.376 74.2779 190.813 76.3311 199.168L78.8133 198.558C77.097 191.574 81.3671 184.521 88.3508 182.805L87.7408 180.323ZM98.2565 181.434C95.1021 179.902 91.4118 179.421 87.7408 180.323L88.3508 182.805C91.4215 182.05 94.5021 182.452 97.1399 183.733L98.2565 181.434ZM234.256 76.2159C173.181 91.2253 124.63 130.867 96.5779 181.968L98.8185 183.198C126.541 132.698 174.515 93.5297 234.866 78.6981L234.256 76.2159ZM495.285 234.257C466.846 118.534 349.979 47.7766 234.256 76.2159L234.866 78.6981C349.219 50.5957 464.701 120.515 492.803 234.867L495.285 234.257ZM337.244 495.286C452.967 466.847 523.725 349.98 495.285 234.257L492.803 234.867C520.905 349.219 450.986 464.701 336.634 492.804L337.244 495.286ZM76.2154 337.245C104.655 452.968 221.521 523.725 337.244 495.286L336.634 492.804C222.282 520.906 106.8 450.987 78.6976 336.635L76.2154 337.245Z" fill="#F5F5F5" mask="url(#path-1-inside-1_2731_53431)"/>
</g>
</svg>
